<svg xmlns="http://www.w3.org/2000/svg" viewBox="0 0 512 512" width="512" height="512">
  <defs>
    <linearGradient id="bgGrad" x1="0%" y1="0%" x2="100%" y2="100%">
      <stop offset="0%" stop-color="#4A90D9"/>
      <stop offset="100%" stop-color="#357ABD"/>
    </linearGradient>
  </defs>
  <!-- Background -->
  <rect width="512" height="512" rx="96" ry="96" fill="url(#bgGrad)"/>
  <!-- Q letter -->
  <circle cx="190" cy="220" r="80" fill="none" stroke="white" stroke-width="28"/>
  <line x1="245" y1="275" x2="300" y2="330" stroke="white" stroke-width="28" stroke-linecap="round"/>
  <!-- H letter -->
  <line x1="310" y1="170" x2="310" y2="330" stroke="white" stroke-width="24" stroke-linecap="round"/>
  <line x1="400" y1="170" x2="400" y2="330" stroke="white" stroke-width="24" stroke-linecap="round"/>
  <line x1="310" y1="250" x2="400" y2="250" stroke="white" stroke-width="24" stroke-linecap="round"/>
  <!-- Decorative star top-right -->
  <polygon points="440,80 448,105 475,105 453,120 461,145 440,130 419,145 427,120 405,105 432,105" fill="#FFD700"/>
  <!-- Decorative small star -->
  <polygon points="120,420 125,435 140,435 128,443 132,458 120,450 108,458 112,443 100,435 115,435" fill="#FFD700" opacity="0.8"/>
  <!-- Book icon bottom-left -->
  <rect x="85" y="370" width="70" height="8" rx="2" fill="white" opacity="0.7"/>
  <rect x="90" y="382" width="60" height="45" rx="3" fill="white" opacity="0.6"/>
  <line x1="120" y1="382" x2="120" y2="427" stroke="url(#bgGrad)" stroke-width="2"/>
</svg>
